<svg width="57" height="18" viewBox="0 0 57 18" fill="none" xmlns="http://www.w3.org/2000/svg">
<path d="M8.41147 0C3.76564 0 0 2.97395 0 6.64582C0 8.84374 1.35937 10.8125 3.44791 12.0052L2.45835 15.7031C2.43689 15.7812 2.4399 15.864 2.46696 15.9403C2.49403 16.0166 2.54384 16.0828 2.6097 16.1299C2.67555 16.1771 2.75427 16.2029 2.83524 16.2038C2.91621 16.2048 2.99553 16.1809 3.0625 16.1354L7.35938 13.2344C7.70313 13.2656 8.05729 13.2864 8.40104 13.2864C13.0469 13.2864 16.8125 10.3125 16.8125 6.64582C16.8125 2.97916 13.0469 0 8.40104 0" fill="#060B11"/>
<path d="M24.25 12.7135V17.2344H21.0052V0.468743H23.2917L23.6927 1.51041C24.1331 1.04878 24.6648 0.683936 25.2539 0.439131C25.8431 0.194326 26.4767 0.074923 27.1146 0.0885285C30.2917 0.0885285 31.8021 2.46353 31.8021 6.30728C31.8021 10.3333 29.4688 12.9114 26.1354 12.9114C25.5068 12.9193 24.8798 12.844 24.2709 12.6875L24.25 12.7135ZM24.2709 3.15103V10.4427C24.6167 10.4818 24.9644 10.5026 25.3125 10.5052C27.625 10.5052 28.5156 8.8854 28.5156 6.33853C28.5156 4.09374 27.9115 2.73957 26.0677 2.73957C25.4434 2.75216 24.8296 2.90338 24.2709 3.18228" fill="#060B11"/>
<path d="M38.3386 5.19271H40.1823V4.79687C40.1823 3.45833 39.4271 2.83853 38.099 2.83853C36.9432 2.86415 35.8065 3.13768 34.7656 3.64062L33.875 1.45833C35.2217 0.592696 36.7847 0.123423 38.3854 0.104157C41.5104 0.104157 43.1875 1.75 43.1875 4.88021V12.5937H40.9011L40.5677 11.5521C39.5422 12.3775 38.2789 12.8522 36.9636 12.9062C34.5886 12.9062 33.2552 11.4844 33.2552 9.08333C33.2552 6.53125 35.0313 5.17187 38.3229 5.17187L38.3386 5.19271ZM40.1667 9.46353V7.26042H38.6771C37.0104 7.26042 36.1667 7.85937 36.1667 9.0625C36.1667 9.97396 36.6302 10.4167 37.5886 10.4167C38.5334 10.3891 39.4451 10.0627 40.1927 9.48437" fill="#060B11"/>
<path d="M52.8854 11.5573C51.75 14.5781 50.3959 16.7656 48.4167 18L46.4323 16.1562C47.5306 15.2432 48.443 14.1275 49.1198 12.8698L44.8125 1.11458L48.0313 0.244792L50.7709 9.76041L53.5052 0.182279L56.6875 1.0677L52.8854 11.5573Z" fill="#060B11"/>
</svg>
